<svg xmlns="http://www.w3.org/2000/svg" viewBox="0 0 1200 360" role="img" aria-label="KITKING banner">
  <defs>
    <linearGradient id="bg" x1="0" y1="0" x2="1" y2="1">
      <stop offset="0" stop-color="#0b0b0f"/>
      <stop offset="1" stop-color="#1a1a22"/>
    </linearGradient>
    <linearGradient id="accent" x1="0" y1="0" x2="1" y2="0">
      <stop offset="0" stop-color="#c9a861"/>
      <stop offset="1" stop-color="#8b1a1a"/>
    </linearGradient>
    <filter id="noise">
      <feTurbulence baseFrequency="0.9" numOctaves="2"/>
      <feColorMatrix values="0 0 0 0 1 0 0 0 0 1 0 0 0 0 1 0 0 0 0.06 0"/>
    </filter>
  </defs>
  <rect width="1200" height="360" fill="url(#bg)"/>
  <rect width="1200" height="360" filter="url(#noise)" opacity="0.4"/>

  <!-- Jersey silhouettes -->
  <g opacity="0.85" transform="translate(740 40)">
    <path d="M50 30 L80 20 Q110 10 140 20 L170 30 L230 60 L210 120 L200 110 L200 300 Q110 320 20 300 L20 110 L10 120 L-10 60 Z"
          fill="#8b1a1a" stroke="#c9a861" stroke-width="2"/>
    <path d="M80 20 Q110 45 140 20" fill="none" stroke="#c9a861" stroke-width="3"/>
    <text x="110" y="195" text-anchor="middle" font-family="Georgia" font-size="110" font-weight="900" fill="#c9a861" opacity="0.95">10</text>
  </g>
  <g opacity="0.7" transform="translate(940 70) scale(0.85)">
    <path d="M50 30 L80 20 Q110 10 140 20 L170 30 L230 60 L210 120 L200 110 L200 300 Q110 320 20 300 L20 110 L10 120 L-10 60 Z"
          fill="#0f2f5e" stroke="#c9a861" stroke-width="2"/>
    <path d="M80 20 Q110 45 140 20" fill="none" stroke="#c9a861" stroke-width="3"/>
    <text x="110" y="195" text-anchor="middle" font-family="Georgia" font-size="110" font-weight="900" fill="#c9a861" opacity="0.95">7</text>
  </g>

  <!-- Logo mark -->
  <rect x="60" y="60" width="44" height="44" fill="#f3f2ee"/>
  <text x="82" y="95" text-anchor="middle" font-family="Georgia" font-size="30" font-weight="800" fill="#0b0b0f">K</text>

  <!-- Wordmark -->
  <text x="124" y="95" font-family="Inter, Arial, sans-serif" font-size="22" font-weight="800" letter-spacing="5" fill="#f3f2ee">KITKING</text>

  <!-- Tagline -->
  <text x="60" y="180" font-family="Georgia, serif" font-size="72" font-weight="400" fill="#f3f2ee">Wear the <tspan fill="#c9a861" font-style="italic">legend</tspan>.</text>
  <text x="60" y="232" font-family="Inter, Arial, sans-serif" font-size="18" fill="#c7c7cc">Premium football jerseys · custom printing · worldwide shipping</text>

  <!-- Accent bar -->
  <rect x="60" y="270" width="180" height="3" fill="url(#accent)"/>

  <!-- Pills -->
  <g font-family="Inter, Arial, sans-serif" font-size="11" font-weight="600" fill="#f3f2ee" letter-spacing="2">
    <g transform="translate(60 300)">
      <rect width="110" height="24" rx="12" fill="none" stroke="#3a3a42"/>
      <text x="55" y="16" text-anchor="middle">ZERO DEPS</text>
    </g>
    <g transform="translate(180 300)">
      <rect width="110" height="24" rx="12" fill="none" stroke="#3a3a42"/>
      <text x="55" y="16" text-anchor="middle">VANILLA JS</text>
    </g>
    <g transform="translate(300 300)">
      <rect width="110" height="24" rx="12" fill="none" stroke="#3a3a42"/>
      <text x="55" y="16" text-anchor="middle">RESPONSIVE</text>
    </g>
    <g transform="translate(420 300)">
      <rect width="110" height="24" rx="12" fill="none" stroke="#3a3a42"/>
      <text x="55" y="16" text-anchor="middle">DARK MODE</text>
    </g>
  </g>
</svg>
